<svg xmlns="http://www.w3.org/2000/svg" width="48.478" height="48.469" viewBox="0 0 48.478 48.469">
  <g id="Group_7114" data-name="Group 7114" transform="translate(-145.469 -433.828)">
    <g id="Group_7114-2" data-name="Group 7114" transform="translate(145.469 433.828)">
      <path id="Path_11948" data-name="Path 11948" d="M157.021,434.781a3.252,3.252,0,0,0-4.6,0l-4.092,4.092a9.76,9.76,0,0,0-2.622,9.04l0,.014c1.212,5.09,4.351,13.326,12.582,21.557s16.468,11.369,21.561,12.574l.012,0a9.753,9.753,0,0,0,9.032-2.619c1.387-1.376,2.965-2.954,4.1-4.086a3.252,3.252,0,0,0,0-4.6l-7.98-7.982a3.255,3.255,0,0,0-4.253-.3l-6.075,4.557a1.084,1.084,0,0,1-1.124.108,36.747,36.747,0,0,1-7.23-5.693,36.133,36.133,0,0,1-5.675-7.217,1.078,1.078,0,0,1,.1-1.131l0,0c1.144-1.542,3.247-4.345,4.545-6.076h0a3.255,3.255,0,0,0-.3-4.253Zm-1.533,1.533,7.98,7.982a1.084,1.084,0,0,1,.1,1.417c-1.3,1.734-3.405,4.541-4.551,6.085a3.242,3.242,0,0,0-.28,3.439c.008.014.015.029.024.043a38.2,38.2,0,0,0,6.037,7.7,38.876,38.876,0,0,0,7.687,6.044.516.516,0,0,0,.049.027,3.252,3.252,0,0,0,3.453-.285l6.075-4.556a1.084,1.084,0,0,1,1.417.1l7.982,7.98a1.084,1.084,0,0,1,0,1.533h0c-1.131,1.13-2.706,2.706-4.094,4.083l0,0a7.585,7.585,0,0,1-7.019,2.038c-4.852-1.148-12.683-4.158-20.52-12s-10.847-15.668-12-20.519a7.592,7.592,0,0,1,2.041-7.025l4.092-4.092a1.084,1.084,0,0,1,1.533,0Z" transform="translate(-145.469 -433.828)" fill="#087db9" fill-rule="evenodd"/>
      <path id="Path_11949" data-name="Path 11949" d="M168.084,439.169A18.444,18.444,0,0,1,186.52,457.6a1.084,1.084,0,0,0,2.169,0,20.615,20.615,0,0,0-20.6-20.6,1.084,1.084,0,1,0,0,2.169Z" transform="translate(-143.651 -433.56)" fill="#087db9" fill-rule="evenodd"/>
      <path id="Path_11950" data-name="Path 11950" d="M168.084,445.169A11.935,11.935,0,0,1,180.013,457.1a1.084,1.084,0,1,0,2.169,0,14.1,14.1,0,0,0-14.1-14.1,1.084,1.084,0,1,0,0,2.169Z" transform="translate(-143.651 -433.053)" fill="#087db9" fill-rule="evenodd"/>
      <path id="Path_11951" data-name="Path 11951" d="M168.084,451.169a5.424,5.424,0,0,1,5.422,5.422,1.084,1.084,0,0,0,2.169,0A7.6,7.6,0,0,0,168.084,449a1.084,1.084,0,1,0,0,2.169Z" transform="translate(-143.651 -432.547)" fill="#087db9" fill-rule="evenodd"/>
    </g>
  </g>
</svg>
