<svg xmlns="http://www.w3.org/2000/svg" width="47.652" height="49.07" viewBox="0 0 47.652 49.07">
  <g id="noun-email-6842634" transform="translate(-6.807 -5.511)">
    <g id="Group_7113" data-name="Group 7113" transform="translate(7.104 5.862)">
      <path id="Path_11942" data-name="Path 11942" d="M39.34,13.3a.573.573,0,0,1-.36-.127L31.91,7.461a1.984,1.984,0,0,0-2.514,0l-7.069,5.713a.573.573,0,1,1-.721-.892l7.069-5.713a3.122,3.122,0,0,1,3.955,0L39.7,12.282a.573.573,0,0,1-.36,1.019Zm10.719,41.03H11.252A3.958,3.958,0,0,1,7.1,50.608V24.281a.574.574,0,0,1,.214-.446L15.4,17.3a.573.573,0,0,1,.721.892L8.254,24.556V50.607a2.817,2.817,0,0,0,3,2.578H50.061a2.815,2.815,0,0,0,3-2.578V24.556L45.2,18.2a.573.573,0,1,1,.721-.892L54,23.835a.572.572,0,0,1,.212.446V50.608a3.957,3.957,0,0,1-4.148,3.723Z" transform="translate(-7.104 -5.862)" fill="#087db9" stroke="#087db9" stroke-width="0.5" fill-rule="evenodd"/>
      <path id="Path_11943" data-name="Path 11943" d="M53.393,77.371a.562.562,0,0,1-.362-.131L31.766,59.788,10.5,77.24a.574.574,0,1,1-.729-.886L31.4,58.6a.572.572,0,0,1,.727,0l21.627,17.75a.574.574,0,0,1-.365,1.017Z" transform="translate(-8.214 -29.588)" fill="#087db9" stroke="#087db9" stroke-width="0.5" fill-rule="evenodd"/>
      <path id="Path_11944" data-name="Path 11944" d="M25.148,55.072a.564.564,0,0,1-.382-.146L7.3,39.364a.573.573,0,1,1,.764-.856L25.53,54.07a.576.576,0,0,1,.047.811.562.562,0,0,1-.427.191Zm11.019,0a.573.573,0,0,1-.38-1L53.254,38.506a.574.574,0,0,1,.761.858L36.551,54.926a.579.579,0,0,1-.382.146Z" transform="translate(-7.106 -20.518)" fill="#087db9" stroke="#087db9" stroke-width="0.5" fill-rule="evenodd"/>
      <path id="Path_11945" data-name="Path 11945" d="M52.192,37.218a.573.573,0,0,1-.573-.573V20.466a2.194,2.194,0,0,0-2.344-2H25.312a2.2,2.2,0,0,0-2.344,2v16.18a.574.574,0,0,1-1.147,0V20.466a3.336,3.336,0,0,1,3.492-3.146H49.275a3.336,3.336,0,0,1,3.492,3.146v16.18a.573.573,0,0,1-.573.573Z" transform="translate(-13.74 -11.029)" fill="#087db9" stroke="#087db9" stroke-width="0.5" fill-rule="evenodd"/>
      <path id="Path_11946" data-name="Path 11946" d="M50.985,34.93H34.694a.573.573,0,1,1,0-1.145H50.985a.573.573,0,0,1,0,1.145Z" transform="translate(-19.288 -18.454)" fill="#087db9" stroke="#087db9" stroke-width="0.5" fill-rule="evenodd"/>
      <path id="Path_11947" data-name="Path 11947" d="M50.985,51.4H34.694a.573.573,0,1,1,0-1.145H50.985a.573.573,0,0,1,0,1.145Z" transform="translate(-19.288 -25.879)" fill="#087db9" stroke="#087db9" stroke-width="0.5" fill-rule="evenodd"/>
    </g>
  </g>
</svg>
