<svg xmlns="http://www.w3.org/2000/svg" width="47.062" height="47.062" viewBox="0 0 47.062 47.062">
  <g id="noun-folder-6880904" transform="translate(-4.537 -4.537)">
    <g id="Group_7126" data-name="Group 7126" transform="translate(4.687 4.687)">
      <path id="Path_11961" data-name="Path 11961" d="M49.111,22.344H47.684V7.025a2.34,2.34,0,0,0-2.338-2.338H14.04A2.34,2.34,0,0,0,11.7,7.025V9.484h-.879A2.33,2.33,0,0,0,8.485,11.8V24.133H7.025a2.34,2.34,0,0,0-2.338,2.338V49.11a2.34,2.34,0,0,0,2.338,2.338H47.16a4.3,4.3,0,0,0,4.289-4.289V24.682a2.34,2.34,0,0,0-2.338-2.338ZM13.258,7.025a.783.783,0,0,1,.782-.782H45.346a.783.783,0,0,1,.782.782V14.9L40.936,9.71a.774.774,0,0,0-.548-.218V9.484H13.258Zm31.766,8.981H41.162V12.144ZM10.041,11.8a.768.768,0,0,1,.782-.758H39.6v4.966a1.557,1.557,0,0,0,1.556,1.556h4.958V45.781a.768.768,0,0,1-.782.758h-.895v-25.5a1.557,1.557,0,0,0-1.556-1.556H34.123a1.549,1.549,0,0,0-1.395.863l-1.693,3.37a.778.778,0,0,1-.693.427h-20.3ZM7.025,49.893a.783.783,0,0,1-.782-.782V26.471a.783.783,0,0,1,.782-.782H30.342A2.318,2.318,0,0,0,32.43,24.4l1.693-3.37h8.756V47.151a4.271,4.271,0,0,0,.984,2.725H7.025Zm42.868-2.733a2.723,2.723,0,0,1-5.281.935h.734a2.33,2.33,0,0,0,2.338-2.314V23.907h1.427a.783.783,0,0,1,.782.782Z" transform="translate(-4.687 -4.687)" fill="#283552" stroke="#283552" stroke-width="0.3"/>
      <path id="Path_11962" data-name="Path 11962" d="M35.325,28.5H19.062a.782.782,0,0,0,0,1.564H35.325a.782.782,0,0,0,0-1.564Z" transform="translate(-11.266 -16.213)" fill="#283552" stroke="#283552" stroke-width="0.3"/>
      <path id="Path_11963" data-name="Path 11963" d="M19.063,23.314H41.59a.782.782,0,0,0,0-1.564H19.063a.782.782,0,0,0,0,1.564Z" transform="translate(-11.267 -12.945)" fill="#283552" stroke="#283552" stroke-width="0.3"/>
      <path id="Path_11964" data-name="Path 11964" d="M35.325,35.625H19.062a.782.782,0,1,0,0,1.564H35.325a.782.782,0,1,0,0-1.564Z" transform="translate(-11.266 -19.661)" fill="#283552" stroke="#283552" stroke-width="0.3"/>
    </g>
  </g>
</svg>
