<svg xmlns="http://www.w3.org/2000/svg" width="51.645" height="48.469" viewBox="0 0 51.645 48.469">
  <g id="noun-website-6791331" transform="translate(-2.832 -5.731)">
    <path id="Path_11952" data-name="Path 11952" d="M15.994,46.225a35.134,35.134,0,0,1,4.335-1.4A30.275,30.275,0,0,1,19.289,37.4H12.852a15.771,15.771,0,0,0,3.142,8.822ZM19.3,35.76a30.114,30.114,0,0,1,1.033-7.1A34.765,34.765,0,0,1,16,27.263a15.746,15.746,0,0,0-3.125,8.5H19.3Zm1.643,0h6.979V29.684a34.333,34.333,0,0,1-5.99-.663,28.433,28.433,0,0,0-.988,6.739Zm8.621,0h6.81a28.418,28.418,0,0,0-.988-6.739,34.082,34.082,0,0,1-5.822.659Zm8.452,0h6.429a15.747,15.747,0,0,0-3.125-8.5,35.049,35.049,0,0,1-4.337,1.4,30.222,30.222,0,0,1,1.033,7.1ZM44.46,37.4H38.022a30.288,30.288,0,0,1-1.039,7.425,34.8,34.8,0,0,1,4.337,1.4A15.777,15.777,0,0,0,44.462,37.4Zm-8.08,0H29.561v6.405a34.089,34.089,0,0,1,5.822.659,28.7,28.7,0,0,0,1-7.064Zm-8.461,0H20.934a28.6,28.6,0,0,0,1,7.064,34.31,34.31,0,0,1,5.989-.663Zm1.643-16.363v7a32.341,32.341,0,0,0,5.319-.59,17.98,17.98,0,0,0-.907-2.094c-1.193-2.323-2.733-3.892-4.412-4.314Zm0,24.411v7c1.681-.421,3.219-1.991,4.412-4.314a17.606,17.606,0,0,0,.9-2.094,32.809,32.809,0,0,0-5.319-.59Zm-1.643,7.034V45.447a32.5,32.5,0,0,0-5.486.595,17.941,17.941,0,0,0,.9,2.092c1.234,2.4,2.836,4,4.581,4.352Zm0-24.445V21c-1.745.355-3.347,1.953-4.581,4.352a17.606,17.606,0,0,0-.9,2.094,32.533,32.533,0,0,0,5.486.595Zm5.509-6.382a13.269,13.269,0,0,1,2,2.943,20.125,20.125,0,0,1,1.061,2.487A33.206,33.206,0,0,0,40.2,25.933c-.12-.128-.24-.252-.364-.376a15.816,15.816,0,0,0-6.414-3.9ZM36.491,46.4a19.812,19.812,0,0,1-1.061,2.487,13.418,13.418,0,0,1-2,2.943,15.822,15.822,0,0,0,6.414-3.9c.122-.122.244-.248.364-.376a33.218,33.218,0,0,0-3.713-1.155Zm-12.607,5.43a13.285,13.285,0,0,1-2-2.945,19.987,19.987,0,0,1-1.061-2.487,33.206,33.206,0,0,0-3.713,1.155c.12.128.24.252.364.376a15.823,15.823,0,0,0,6.412,3.9ZM20.82,27.09A19.812,19.812,0,0,1,21.881,24.6a13.485,13.485,0,0,1,2-2.945,15.8,15.8,0,0,0-6.412,3.9c-.124.124-.244.248-.364.376A33.219,33.219,0,0,0,20.82,27.09ZM14.49,46.952h-5A6.638,6.638,0,0,1,4.787,45l-.045-.049a6.633,6.633,0,0,1-1.91-4.658v-27.9a6.681,6.681,0,0,1,6.66-6.66H47.817a6.674,6.674,0,0,1,6.66,6.66v27.9a6.681,6.681,0,0,1-6.66,6.662h-5a17.47,17.47,0,0,1-28.331,0ZM43.872,45.31h3.946a5.035,5.035,0,0,0,5.017-5.02V20.105a5.031,5.031,0,0,0-5.017-5.017H9.492a5.031,5.031,0,0,0-5.017,5.017V40.29A5,5,0,0,0,5.908,43.8l.041.038A5.006,5.006,0,0,0,9.492,45.31h3.946a17.459,17.459,0,1,1,30.432,0ZM35.963,8.629a1.685,1.685,0,1,1-1.685,1.685,1.686,1.686,0,0,1,1.685-1.685Zm5.1,0a1.685,1.685,0,1,1-1.685,1.685A1.686,1.686,0,0,1,41.066,8.629Zm5.1,0a1.685,1.685,0,1,1-1.685,1.685A1.686,1.686,0,0,1,46.169,8.629Zm6.669,7.107V12.393A5.031,5.031,0,0,0,47.82,7.375H9.494a5.031,5.031,0,0,0-5.017,5.017V15.74c.1-.115.205-.229.314-.338a6.626,6.626,0,0,1,4.7-1.957H47.82A6.642,6.642,0,0,1,52.525,15.4c.107.107.212.22.312.336Z" transform="translate(0)" fill="#087db9"/>
  </g>
</svg>
