<svg xmlns="http://www.w3.org/2000/svg" width="212.303" height="59.586" viewBox="0 0 212.303 59.586">
  <g id="logo" transform="translate(-6.1 -9)">
    <path id="Path_1" data-name="Path 1" d="M6.118,66.5c2.157,1.123,4.331,2.192,6.434,3.387A140.044,140.044,0,0,1,31.464,82.649c3.529,2.834,6.951,5.828,10.267,8.93a114.162,114.162,0,0,1,18.555,22.3c.356.57.7,1.159,1.123,1.889-.481.036-.82.071-1.159.071h-48.2A5.565,5.565,0,0,1,6.278,111.1,2.624,2.624,0,0,0,6.1,110.7Q6.127,88.62,6.118,66.5Z" transform="translate(0 -47.251)" fill="#0c5e95"/>
    <path id="Path_2" data-name="Path 2" d="M428.107,65.749c-6.773,0-13.546-.018-20.319.018-.873,0-1.087-.267-1.087-1.105q.027-19.41,0-38.839c0-.838.2-1.123,1.069-1.123q20.186.053,40.354,0c.82,0,1.087.2,1.052,1.034-.053,2.46-.053,4.937,0,7.4.018.838-.25,1.052-1.052,1.052q-11.978-.027-23.973-.018c-1.176,0-1.176,0-1.176,1.159,0,1.337.036,2.674-.018,4.01-.036.8.214,1.087,1.052,1.069,5.757-.036,11.514,0,17.289-.036.838,0,1.141.214,1.105,1.087-.107,2.317-.16,4.616-.178,6.934,0,.784-.428.766-.962.766H424.417c-1.444,0-1.444,0-1.444,1.462V55.25c0,1.141.036,1.176,1.23,1.176H447.2c2.335,0,2.335,0,2.335,2.317,0,2.014-.036,4.046.018,6.06.018.749-.232.962-.962.962C441.778,65.731,434.933,65.749,428.107,65.749Z" transform="translate(-329.197 -12.902)" fill="#097db9"/>
    <path id="Path_3" data-name="Path 3" d="M978.16,65.749c-6.809,0-13.6-.018-20.409.018-.838,0-1.052-.25-1.052-1.052q.027-19.464,0-38.945c0-.784.161-1.069,1.034-1.069q20.239.053,40.46,0c.784,0,1.034.2,1.016,1q-.08,3.743,0,7.486c.018.784-.232,1.016-1.016,1.016q-12.031-.027-24.062-.018c-1.141,0-1.141,0-1.141,1.176,0,1.372.036,2.727-.018,4.1-.018.731.232.963.963.963,5.757-.018,11.532-.018,17.289-.018,1.177,0,1.212,0,1.177,1.141-.054,2.281-.143,4.563-.16,6.844,0,.766-.41.766-.98.766-5.7-.018-11.407,0-17.111,0-1.176,0-1.176,0-1.176,1.176,0,1.658.036,3.333-.018,4.991-.036.856.267,1.123,1.123,1.123q12.112-.027,24.241-.018c1.23,0,1.23,0,1.23,1.194,0,2.371-.036,4.759.018,7.13.018.784-.214,1.016-1,1.016C991.778,65.731,984.969,65.749,978.16,65.749Z" transform="translate(-781.165 -12.902)" fill="#097db9"/>
    <path id="Path_4" data-name="Path 4" d="M694.818,45.176c0-6.47.018-12.958-.018-19.428,0-.8.214-1.069,1.052-1.052,5.044.036,10.106.036,15.15,0,.8,0,1,.25,1,1.016q-.027,14.758-.018,29.5c0,1.23,0,1.23,1.212,1.23,6.631,0,13.243.018,19.874-.018.82,0,1.069.232,1.052,1.052-.053,2.442-.036,4.866,0,7.308.018.713-.16.98-.927.98q-18.715-.027-37.43,0c-.766,0-.945-.285-.927-.98Q694.809,54.97,694.818,45.176Z" transform="translate(-565.946 -12.898)" fill="#097db9"/>
    <path id="Path_5" data-name="Path 5" d="M88.7,9h39.676a5.481,5.481,0,0,1,5.276,3.975,4.172,4.172,0,0,1,.16,1.052V62.472C123.136,40.958,107.914,23.437,88.7,9Z" transform="translate(-67.877)" fill="#097db9"/>
    <g id="Group_1" data-name="Group 1" transform="translate(77.735 58.034)">
      <path id="Path_6" data-name="Path 6" d="M408,295.178V285h2.763v10.178Z" transform="translate(-408 -284.84)" fill="#135d93"/>
      <path id="Path_7" data-name="Path 7" d="M454.8,295.178h-3.6l-3.725-7.165H447.4c.018.214.036.481.071.784.018.3.036.624.054.945s.018.606.018.856v4.581H445.1V285h3.6l3.707,7.076h.036c-.018-.214-.036-.481-.036-.784-.018-.3-.036-.588-.036-.891-.018-.3-.018-.57-.018-.8V285h2.46v10.178Z" transform="translate(-438.487 -284.84)" fill="#135d93"/>
      <path id="Path_8" data-name="Path 8" d="M522.222,295.178h-2.745v-7.932H517V285h7.718v2.246H522.24v7.932Z" transform="translate(-497.572 -284.84)" fill="#135d93"/>
      <path id="Path_9" data-name="Path 9" d="M583.642,295.178H577.6V285h6.042v2.21h-3.3v1.6h3.048v2.21h-3.048v1.925h3.3Z" transform="translate(-547.37 -284.84)" fill="#135d93"/>
      <path id="Path_10" data-name="Path 10" d="M634.133,285a6.521,6.521,0,0,1,2.3.339,2.929,2.929,0,0,1,1.39,1,3.139,3.139,0,0,1,.25,2.781,3.065,3.065,0,0,1-.588.909,3.713,3.713,0,0,1-.927.7l2.959,4.438H636.4l-2.157-3.707h-.7v3.707H630.8V285Zm-.036,2.085h-.535V289.4h.517a1.69,1.69,0,0,0,1.034-.285,1.124,1.124,0,0,0,.41-1,.918.918,0,0,0-.339-.766A1.773,1.773,0,0,0,634.1,287.085Z" transform="translate(-591.088 -284.84)" fill="#135d93"/>
      <path id="Path_11" data-name="Path 11" d="M703.9,295.178h-3.6l-3.725-7.165H696.5c.018.214.036.481.071.784.018.3.036.624.053.945s.018.606.018.856v4.581H694.2V285h3.6l3.707,7.076h.036c-.018-.214-.036-.481-.036-.784-.018-.3-.036-.588-.036-.891-.018-.3-.018-.57-.018-.8V285h2.46v10.178Z" transform="translate(-643.188 -284.84)" fill="#135d93"/>
      <path id="Path_12" data-name="Path 12" d="M771.361,295.013l-.5-1.907h-3.315l-.517,1.907H764l3.315-10.213h3.672l3.369,10.213Zm-1.069-4.171-.446-1.675c-.053-.178-.107-.446-.2-.784s-.178-.677-.267-1.052c-.089-.356-.16-.659-.2-.891-.036.232-.107.517-.178.856s-.16.677-.232,1.016c-.089.339-.16.606-.214.838l-.446,1.675h2.174Z" transform="translate(-700.547 -284.675)" fill="#135d93"/>
      <path id="Path_13" data-name="Path 13" d="M838.722,295.178h-2.745v-7.932H833.5V285h7.718v2.246H838.74v7.932Z" transform="translate(-757.659 -284.84)" fill="#135d93"/>
      <path id="Path_14" data-name="Path 14" d="M894.1,295.178V285h2.763v10.178Z" transform="translate(-807.457 -284.84)" fill="#135d93"/>
      <path id="Path_15" data-name="Path 15" d="M939.175,289.34a7.309,7.309,0,0,1-.285,2.139,4.605,4.605,0,0,1-.873,1.658,3.836,3.836,0,0,1-1.533,1.069,6.043,6.043,0,0,1-2.246.374,5.914,5.914,0,0,1-2.21-.374,4.029,4.029,0,0,1-1.551-1.069,4.376,4.376,0,0,1-.891-1.658,7.431,7.431,0,0,1-.285-2.157,6.944,6.944,0,0,1,.517-2.763,3.927,3.927,0,0,1,1.622-1.818,6.54,6.54,0,0,1,5.65,0,3.8,3.8,0,0,1,1.6,1.818A7.384,7.384,0,0,1,939.175,289.34Zm-7,0a5.254,5.254,0,0,0,.214,1.586,1.989,1.989,0,0,0,.659,1.016,1.886,1.886,0,0,0,1.176.356,1.96,1.96,0,0,0,1.212-.356,1.862,1.862,0,0,0,.642-1.016,5.84,5.84,0,0,0,.2-1.586,4.38,4.38,0,0,0-.463-2.175,1.674,1.674,0,0,0-1.586-.8,1.9,1.9,0,0,0-1.194.356,2.123,2.123,0,0,0-.659,1.034A5.84,5.84,0,0,0,932.17,289.34Z" transform="translate(-836.383 -284.1)" fill="#135d93"/>
      <path id="Path_16" data-name="Path 16" d="M1014,295.178h-3.6l-3.725-7.165h-.071c.018.214.036.481.071.784.018.3.036.624.054.945s.018.606.018.856v4.581H1004.3V285h3.6l3.707,7.076h.036c-.018-.214-.036-.481-.036-.784-.018-.3-.036-.588-.036-.891-.018-.3-.018-.57-.018-.8V285h2.46v10.178Z" transform="translate(-898.016 -284.84)" fill="#135d93"/>
      <path id="Path_17" data-name="Path 17" d="M1081.444,295.013l-.5-1.907h-3.3l-.517,1.907h-3.03l3.315-10.213h3.672l3.369,10.213Zm-1.07-4.171-.446-1.675c-.053-.178-.107-.446-.2-.784s-.178-.677-.267-1.052c-.089-.356-.16-.659-.2-.891-.036.232-.107.517-.178.856s-.16.677-.232,1.016c-.089.339-.16.606-.214.838l-.446,1.675h2.175Z" transform="translate(-955.374 -284.675)" fill="#135d93"/>
      <path id="Path_18" data-name="Path 18" d="M1147.7,295.178V285h2.745v7.95h3.921v2.228Z" transform="translate(-1015.856 -284.84)" fill="#135d93"/>
    </g>
  </g>
</svg>
