<svg xmlns="http://www.w3.org/2000/svg" width="46.062" height="49.122" viewBox="0 0 46.062 49.122">
  <g id="noun-location-6772175" transform="translate(-6.043 -3.125)">
    <g id="Group_7111" data-name="Group 7111" transform="translate(6.043 3.125)">
      <path id="Path_11939" data-name="Path 11939" d="M50.686,25.759a7.505,7.505,0,1,0-7.505,7.505A7.514,7.514,0,0,0,50.686,25.759Zm-13.373,0a5.868,5.868,0,1,1,5.868,5.868A5.874,5.874,0,0,1,37.313,25.759Z" transform="translate(-20.149 -10.327)" fill="#087db9"/>
      <path id="Path_11940" data-name="Path 11940" d="M45.178,30.49a.821.821,0,0,0-.778-.561H39.92c2.673-3.817,4.818-7.89,4.818-11.14a15.664,15.664,0,1,0-31.328,0c0,3.25,2.145,7.323,4.818,11.14h-4.48a.821.821,0,0,0-.778.561L6.085,51.17a.818.818,0,0,0,.778,1.077H51.285a.826.826,0,0,0,.665-.34.816.816,0,0,0,.113-.737ZM29.075,4.762A14.043,14.043,0,0,1,43.1,18.789c0,6.871-11.335,18.621-14.026,21.315C26.383,37.41,15.048,25.658,15.048,18.789A14.042,14.042,0,0,1,29.075,4.762ZM8,50.609,14.34,31.566h5.076a95.357,95.357,0,0,0,9.092,10.279.822.822,0,0,0,.567.229.809.809,0,0,0,.567-.229,95.425,95.425,0,0,0,9.092-10.279h5.076L50.15,50.609Z" transform="translate(-6.043 -3.125)" fill="#087db9"/>
    </g>
  </g>
</svg>
