<svg id="Group_7032" data-name="Group 7032" xmlns="http://www.w3.org/2000/svg" width="95" height="95" viewBox="0 0 95 95">
  <circle id="Ellipse_23" data-name="Ellipse 23" cx="47.5" cy="47.5" r="47.5" fill="#087db9"/>
  <g id="noun-mission-2191332" transform="translate(13.622 13.621)">
    <g id="Group_7031" data-name="Group 7031" transform="translate(0 0)">
      <path id="Path_11923" data-name="Path 11923" d="M57.919,23.919v6.106L46.5,41.445a1.7,1.7,0,1,0,2.408,2.408l11.42-11.42h6.106a1.7,1.7,0,0,0,1.2-.5L77.852,21.717a1.7,1.7,0,0,0-1.2-2.907H71.54V13.7a1.7,1.7,0,0,0-2.907-1.2L58.418,22.715A1.7,1.7,0,0,0,57.919,23.919Z" transform="translate(-13.623 -8.591)" fill="#fff"/>
      <path id="Path_11924" data-name="Path 11924" d="M72.1,26.039l-5.1,5.1A27.268,27.268,0,1,1,52.967,17.1l5.1-5.1A34.067,34.067,0,1,0,72.1,26.039Z" transform="translate(-7.969 -7.996)" fill="#fff"/>
      <path id="Path_11925" data-name="Path 11925" d="M50.621,25.108a5.075,5.075,0,0,1,1.483-3.6A23.915,23.915,0,1,0,66.135,35.543a5.075,5.075,0,0,1-3.6,1.483H59.4a17.073,17.073,0,1,1-8.779-8.779Z" transform="translate(-9.731 -9.78)" fill="#fff"/>
      <path id="Path_11926" data-name="Path 11926" d="M50.942,33.079A13.616,13.616,0,1,0,58.165,40.3l-8.931,8.931a5.108,5.108,0,1,1-7.223-7.223Z" transform="translate(-11.543 -11.564)" fill="#fff"/>
    </g>
  </g>
</svg>
