<svg xmlns="http://www.w3.org/2000/svg" width="45.876" height="50.268" viewBox="0 0 45.876 50.268">
  <g id="noun-pdf-4962747" transform="translate(-5.075 -2.21)">
    <g id="Group_7124" data-name="Group 7124" transform="translate(5.075 2.21)">
      <g id="Group_7123" data-name="Group 7123">
        <path id="Path_11953" data-name="Path 11953" d="M20.765,12.748H37.111a.767.767,0,1,0,0-1.533H20.765a.767.767,0,0,0,0,1.533Z" transform="translate(-8.559 -4.312)" fill="#c00000"/>
        <path id="Path_11954" data-name="Path 11954" d="M20.765,20.01H40.824a.767.767,0,0,0,0-1.533H20.765a.767.767,0,0,0,0,1.533Z" transform="translate(-8.559 -6.008)" fill="#c00000"/>
        <path id="Path_11955" data-name="Path 11955" d="M47.955,25.738H20.765a.767.767,0,1,0,0,1.533H47.955a.767.767,0,0,0,0-1.533Z" transform="translate(-8.559 -7.703)" fill="#c00000"/>
        <path id="Path_11956" data-name="Path 11956" d="M51.325,33H35.2a.767.767,0,0,0,0,1.533H51.325a.767.767,0,0,0,0-1.533Z" transform="translate(-11.929 -9.399)" fill="#c00000"/>
        <path id="Path_11957" data-name="Path 11957" d="M27.947,33H20.765a.767.767,0,0,0,0,1.533h7.182a.767.767,0,1,0,0-1.533Z" transform="translate(-8.559 -9.399)" fill="#c00000"/>
        <g id="Group_7122" data-name="Group 7122">
          <path id="Path_11958" data-name="Path 11958" d="M18.959,47.759a1.255,1.255,0,0,0,.37-.893A1.269,1.269,0,0,0,18.061,45.6H16.48v2.536h1.581A1.27,1.27,0,0,0,18.959,47.759Z" transform="translate(-7.738 -12.34)" fill="#c00000"/>
          <path id="Path_11959" data-name="Path 11959" d="M42.611,3.574A5.1,5.1,0,0,0,39.124,2.21H16.159a5.141,5.141,0,0,0-5.136,5.136V21.733c-.092.13-5.787,8.386-5.856,8.531a.229.229,0,0,0-.031.061.611.611,0,0,0-.054.261c0,.008-.008.008-.008.015V44.246a2.864,2.864,0,0,0,2.859,2.859h3.089v.238a5.141,5.141,0,0,0,5.136,5.136H45.815a5.141,5.141,0,0,0,5.136-5.136V13.524C50.951,10.68,49.686,10.113,42.611,3.574ZM11.023,29.7l-3.695.1,3.695-5.366V29.7Zm1.261,12.375v-3.3s0,0,0-.008V34.7a.767.767,0,0,1,.768-.767H15.4a2.8,2.8,0,0,1,0,5.6H13.817v2.536a.767.767,0,0,1-1.533,0Zm37.134,5.27a3.6,3.6,0,0,1-3.6,3.6H16.159a3.6,3.6,0,0,1-3.6-3.6v-.238H39.17a2.859,2.859,0,0,0,2.859-2.859V32.694a2.859,2.859,0,0,0-2.859-2.859H12.556V7.346a3.6,3.6,0,0,1,3.6-3.6H39.124c.069,0,.13.008.2.008v6.876a2.831,2.831,0,0,0,2.828,2.828H49.41c0,.023.008.046.008.069V47.343Zm-29.225-5.1V34.7a.766.766,0,0,1,.767-.767h.681a4.544,4.544,0,0,1,4.539,4.539,4.538,4.538,0,0,1-4.539,4.534H20.96A.766.766,0,0,1,20.193,42.241Zm13.865-4.53a.767.767,0,1,1,0,1.533h-3.3v2.828a.767.767,0,0,1-1.533,0V34.7a.766.766,0,0,1,.768-.767h4.069a.767.767,0,0,1,0,1.533h-3.3v2.244Z" transform="translate(-5.075 -2.21)" fill="#c00000"/>
          <path id="Path_11960" data-name="Path 11960" d="M29.717,48.6a3.009,3.009,0,0,0-2.92-3v6a3.005,3.005,0,0,0,2.92-3Z" transform="translate(-10.147 -12.341)" fill="#c00000"/>
        </g>
      </g>
    </g>
  </g>
</svg>
