<svg xmlns="http://www.w3.org/2000/svg" width="136.6" height="128.792" viewBox="0 0 136.6 128.792">
  <g id="noun-support-1153864_1_" data-name="noun-support-1153864 (1)" transform="translate(-0.028 -0.713)">
    <g id="Group_6826" data-name="Group 6826" transform="translate(0.028 0.713)">
      <ellipse id="Ellipse_14" data-name="Ellipse 14" cx="3.029" cy="2.79" rx="3.029" ry="2.79" transform="translate(75.535 55.896)" fill="#087db9"/>
      <path id="Path_11844" data-name="Path 11844" d="M10.818,17.429A23.863,23.863,0,0,0,21.412,19.8c.793,0,1.592-.034,2.39-.108a25.825,25.825,0,0,0,7.924-1.974,2.282,2.282,0,0,0-1.814-4.187,20.979,20.979,0,0,1-6.509,1.62,19.85,19.85,0,0,1-10.548-1.791,2.277,2.277,0,1,0-2.037,4.073Z" transform="translate(44.79 57.606)" fill="#087db9"/>
      <ellipse id="Ellipse_15" data-name="Ellipse 15" cx="3.029" cy="2.79" rx="3.029" ry="2.79" transform="translate(50.011 55.896)" fill="#087db9"/>
      <path id="Path_11845" data-name="Path 11845" d="M17.05,14.459A2.284,2.284,0,0,0,19,10.328a12.314,12.314,0,0,0-9.413-.006,2.279,2.279,0,0,0,1.928,4.13A7.865,7.865,0,0,1,17.05,14.459Z" transform="translate(38.752 40.114)" fill="#087db9"/>
      <path id="Path_11846" data-name="Path 11846" d="M24.571,13.359a2.281,2.281,0,0,0-1.1-3.035,12.34,12.34,0,0,0-9.413,0,2.279,2.279,0,1,0,1.928,4.13,7.881,7.881,0,0,1,5.551,0,2.33,2.33,0,0,0,.97.217A2.278,2.278,0,0,0,24.571,13.359Z" transform="translate(59.801 40.118)" fill="#087db9"/>
      <path id="Path_11847" data-name="Path 11847" d="M136.542,126.589c-7.257-25.643-28.889-26.219-35.387-25.774a19.893,19.893,0,0,0-6.424-7.947c7.137-4.125,13.321-10.959,13.321-22.363V61.167a7.336,7.336,0,0,0,5.385-6.92V44.224a7.329,7.329,0,0,0-5.494-6.937C106.837,16.955,88.4.713,65.831.713c-22.4,0-40.727,16-42.084,36.117a7.577,7.577,0,0,0-5.711,7.217V54.424A7.714,7.714,0,0,0,25.9,61.965a2.281,2.281,0,0,0,2.282-2.282,2.875,2.875,0,0,0-.063-.319,1.978,1.978,0,0,0,.063-.319V39.2c0-18.712,16.886-33.932,37.652-33.932s37.652,15.22,37.652,33.932V70.5c0,18.552-19.7,22.785-27.343,23.726a4.611,4.611,0,0,0-3.771-1.985H66.145A4.508,4.508,0,0,0,61.524,96.6v.348a4.511,4.511,0,0,0,4.621,4.358h6.224a4.644,4.644,0,0,0,4.187-2.573A58.691,58.691,0,0,0,83.75,97.29L68.324,111.951,47.655,92.321V87.175a33.368,33.368,0,0,0,6.794,3.411,2.283,2.283,0,0,0,1.529-4.3C44.923,82.377,37.5,72.331,37.5,61.292V34.3a19.561,19.561,0,0,0,14.912-9.065c6.327,14.085,22.5,21.416,38.148,21.416a48.782,48.782,0,0,0,5.174-.416V67.522c0,9.424-5.488,15.021-18.352,18.723a2.284,2.284,0,0,0,.633,4.478,2.2,2.2,0,0,0,.628-.091c9.3-2.67,21.661-7.975,21.661-23.1V43.881a1.4,1.4,0,0,0-.046-.211c-.006-.091.023-.171.011-.262a2.489,2.489,0,0,0-.131-.342c-.017-.04-.029-.08-.046-.114a2.275,2.275,0,0,0-2.442-1.426C79.7,44.475,58.2,36.083,54.7,17.422c0-.034.011-.068.011-.1a2.282,2.282,0,1,0-4.564,0c0,6.966-6.7,12.63-14.924,12.63a2.281,2.281,0,0,0-2.282,2.282V61.3A30.522,30.522,0,0,0,43.1,83.7V92.03a20.141,20.141,0,0,0-7.6,8.8c-6.5-.439-28.125.137-35.381,25.774a2.28,2.28,0,0,0,1.569,2.818,2.366,2.366,0,0,0,.622.086,2.283,2.283,0,0,0,2.2-1.66c6.8-24.046,27.412-22.91,31.473-22.42l22.648,21.929a2.348,2.348,0,0,0,1.757.639,2.262,2.262,0,0,0,1.643-.89l6.3-8.255,6.31,8.243a2.279,2.279,0,0,0,3.4.251l22.642-21.929c4.039-.485,24.668-1.626,31.479,22.42a2.283,2.283,0,0,0,2.2,1.66,2.366,2.366,0,0,0,.622-.086A2.286,2.286,0,0,0,136.542,126.589ZM22.605,54.424V44.047a2.825,2.825,0,0,1,1.01-2.134V56.557A2.825,2.825,0,0,1,22.605,54.424Zm86.262-.177a2.622,2.622,0,0,1-.821,1.854V42.369a2.622,2.622,0,0,1,.821,1.854ZM59.949,122.282,39.663,102.635a15.478,15.478,0,0,1,5.454-6.429L65.266,115.34Zm16.744,0-5.317-6.943L91.531,96.206a15.5,15.5,0,0,1,5.448,6.429Z" transform="translate(-0.028 -0.713)" fill="#087db9"/>
    </g>
  </g>
</svg>
