<svg xmlns="http://www.w3.org/2000/svg" width="118.6" height="134.844" viewBox="0 0 118.6 134.844">
  <g id="noun-find-location-5407250" transform="translate(-6.19 -2.52)">
    <path id="Path_11848" data-name="Path 11848" d="M120.709,113.589,104.852,97.731a6.161,6.161,0,0,0-8.67-.022l-5.573-5.573a46.408,46.408,0,0,0-10.97-64.779,27.241,27.241,0,0,0-54.3.332A46.5,46.5,0,0,0,52.7,111.8a46.121,46.121,0,0,0,26.894-8.6l5.573,5.573a6.14,6.14,0,0,0,0,8.67l15.857,15.858a13.926,13.926,0,0,0,19.684-19.706ZM52.5,6.1A23.715,23.715,0,0,1,76.189,29.79c0,7.077-7.586,20.458-20.812,36.735a3.785,3.785,0,0,1-5.728,0C36.423,50.247,28.837,36.867,28.837,29.79A23.668,23.668,0,0,1,52.5,6.1ZM45.4,66.989c-6.06.531-14.42,2.057-14.42,6.3,0,6.414,19.308,6.613,21.519,6.613s21.519-.177,21.519-6.613c0-4.246-8.36-5.75-14.42-6.3A162.953,162.953,0,0,0,73.977,46.222,28.219,28.219,0,0,1,81.32,65.264,28.6,28.6,0,1,1,31.182,46.488,165.758,165.758,0,0,0,45.4,66.989Zm10.859,3.384c8.249.4,12.916,1.968,14,2.919C68.934,74.487,62.5,76.3,52.48,76.3S36.025,74.465,34.7,73.293c1.084-.951,5.75-2.521,14-2.919a7.02,7.02,0,0,0,7.564,0ZM9.773,65.264a43,43,0,0,1,15.658-33.13A38.805,38.805,0,0,0,29.39,43.148,32.16,32.16,0,1,0,84.88,65.264a31.757,31.757,0,0,0-9.156-22.382,36.975,36.975,0,0,0,3.87-11.036A42.907,42.907,0,1,1,9.773,65.264ZM88.419,95.033l5.242,5.242-5.949,5.949-5.242-5.242A50.382,50.382,0,0,0,88.419,95.033Zm29.747,35.7a10.332,10.332,0,0,1-14.6,0L87.711,114.872a2.53,2.53,0,0,1-.752-1.791,2.492,2.492,0,0,1,.752-1.791l1.239-1.239.022-.022.022-.022,8.426-8.426.022-.022.022-.022L98.7,100.3a2.569,2.569,0,0,1,1.791-.752,2.477,2.477,0,0,1,1.791.752l15.858,15.858A10.285,10.285,0,0,1,118.166,130.729Z" transform="translate(0 0)" fill="#087db9"/>
    <path id="Path_11849" data-name="Path 11849" d="M34.7,35.6A13.845,13.845,0,1,0,20.88,21.777,13.828,13.828,0,0,0,34.7,35.6Zm0-24.085A10.262,10.262,0,1,1,24.463,21.8,10.269,10.269,0,0,1,34.7,11.515Z" transform="translate(17.799 6.531)" fill="#087db9"/>
  </g>
</svg>
