<svg xmlns="http://www.w3.org/2000/svg" width="128.792" height="128.792" viewBox="0 0 128.792 128.792">
  <g id="noun-product-2294584" transform="translate(-2 -2)">
    <path id="Path_11842" data-name="Path 11842" d="M124.352,2H34.2a6.325,6.325,0,0,0-6.44,6.44V19.172h4.293V44.931H13.591L2,68.113v62.679H92.154V108.039l7.3,19.1,13.308-5.8a6.243,6.243,0,0,0,3.434-8.157L87.217,37.632a6.506,6.506,0,0,0-8.371-3.649h-.215L65.752,39.564,67.9,44.931H36.344V19.172h85.861V96.447h-6.44v4.293H126.5V19.172h4.293V8.44A6.325,6.325,0,0,0,124.352,2ZM16.167,49.224H32.91l-3.22,6.44H12.947ZM76.055,66.4h-23.4l3.22-6.44H73.694Zm-28.12,0H29.046l3.22-6.44H51.156Zm-40.355,0,3.22-6.44H27.544l-3.22,6.44ZM34.413,55.663l3.22-6.44H56.522l-3.22,6.44ZM87.861,126.5H6.293V70.689H77.772L87.861,96.877ZM80.348,37.847a2.351,2.351,0,0,1,1.717,0c.644.215.859.644,1.073,1.288l29.193,75.772a2.13,2.13,0,0,1-1.073,2.79l-9.23,3.864-30.7-79.851ZM71.977,55.663H58.024l3.22-6.44H69.4ZM126.5,14.879H32.051V8.44A2.028,2.028,0,0,1,34.2,6.293h90.154A2.028,2.028,0,0,1,126.5,8.44Z" fill="#1d81b5"/>
    <path id="Path_11843" data-name="Path 11843" d="M46.2,38H20.44a6.44,6.44,0,1,0,0,12.879H46.2A6.44,6.44,0,1,0,46.2,38Zm0,8.586H20.44a2.147,2.147,0,1,1,0-4.293H46.2a2.147,2.147,0,1,1,0,4.293Z" transform="translate(13.758 41.275)" fill="#1d81b5"/>
    <rect id="Rectangle_1625" data-name="Rectangle 1625" width="17.438" height="4.36" transform="translate(12.463 107.25)" fill="#1d81b5"/>
    <rect id="Rectangle_1626" data-name="Rectangle 1626" width="17.438" height="4.36" transform="translate(12.463 115.969)" fill="#1d81b5"/>
    <rect id="Rectangle_1627" data-name="Rectangle 1627" width="16.566" height="4.36" transform="translate(98.782 25.29)" fill="#1d81b5"/>
    <rect id="Rectangle_1628" data-name="Rectangle 1628" width="16.566" height="4.36" transform="translate(98.782 34.01)" fill="#1d81b5"/>
  </g>
</svg>
