<svg xmlns="http://www.w3.org/2000/svg" width="95" height="96" viewBox="0 0 95 96">
  <g id="Group_7033" data-name="Group 7033" transform="translate(0 0.336)">
    <ellipse id="Ellipse_23" data-name="Ellipse 23" cx="47.5" cy="48" rx="47.5" ry="48" transform="translate(0 -0.336)" fill="#087db9"/>
    <g id="noun-vision-6505746" transform="translate(18.729 21.283)">
      <path id="Path_11927" data-name="Path 11927" d="M63.7,43.521a.471.471,0,0,0,0-.1L58.091,20.378a.19.19,0,0,0-.042-.139,8.62,8.62,0,0,0-6.929-5.827l-.443-1.386A6.666,6.666,0,0,0,44.309,8.37H42.231a6.7,6.7,0,0,0-6.617,5.98H34.048A6.7,6.7,0,0,0,27.43,8.37H25.352a6.666,6.666,0,0,0-6.368,4.656L18.45,14.71A8.613,8.613,0,0,0,12.8,20.253v.083L6.567,43.008a.734.734,0,0,0,0,.132,13.463,13.463,0,1,0,26.122,5.793,6.236,6.236,0,0,0,4.795-.18A13.463,13.463,0,0,0,64.362,47.54,13.165,13.165,0,0,0,63.7,43.521ZM19.247,57.552a9.985,9.985,0,1,1,9.514-13.1q.1.326.187.693A9.008,9.008,0,0,1,29.17,46.3a9.8,9.8,0,0,1,.083,1.282,10.012,10.012,0,0,1-10.005,9.971ZM29.911,39.343a12.9,12.9,0,0,0-2.481-2.474l1.871-9.8a1.732,1.732,0,1,1,3.4.651L30.625,38.532a6.237,6.237,0,0,0-.714.811Zm4.92,6.534a2.772,2.772,0,0,1-2.55-1.684c-.049-.194-.1-.388-.166-.575a2.321,2.321,0,0,1-.049-.492A2.772,2.772,0,1,1,34.837,45.9Zm4.9-6.583L37.4,27.737a1.736,1.736,0,0,1,3.4-.693L42.757,36.8a13.207,13.207,0,0,0-2.772,2.841,3.6,3.6,0,0,0-.256-.346ZM50.857,57.552a10.012,10.012,0,0,1-10.005-10,9.853,9.853,0,0,1,.166-1.822,10.005,10.005,0,1,1,9.839,11.821Z" transform="translate(-5.839 -8.37)" fill="#fff"/>
      <path id="Path_11928" data-name="Path 11928" d="M22.383,55.78a6.333,6.333,0,1,0,6.333,6.333A6.333,6.333,0,0,0,22.383,55.78Zm0,9.195a2.869,2.869,0,1,1,2.869-2.862A2.869,2.869,0,0,1,22.383,64.975Z" transform="translate(-8.975 -22.93)" fill="#fff"/>
      <path id="Path_11929" data-name="Path 11929" d="M68.018,55.78a6.34,6.34,0,1,0,4.5,1.845,6.333,6.333,0,0,0-4.5-1.845Zm0,9.195a2.869,2.869,0,1,1,2.048-.825A2.869,2.869,0,0,1,68.018,64.975Z" transform="translate(-23 -22.93)" fill="#fff"/>
    </g>
  </g>
</svg>
