<svg xmlns="http://www.w3.org/2000/svg" width="128" height="114" viewBox="0 0 128 114">
  <g id="noun-installation-3859500" transform="translate(0 -7)">
    <circle id="Ellipse_20" data-name="Ellipse 20" cx="2" cy="2" r="2" transform="translate(12 15)" fill="#1d81b5"/>
    <circle id="Ellipse_21" data-name="Ellipse 21" cx="2" cy="2" r="2" transform="translate(20 15)" fill="#1d81b5"/>
    <circle id="Ellipse_22" data-name="Ellipse 22" cx="2" cy="2" r="2" transform="translate(28 15)" fill="#1d81b5"/>
    <path id="Path_11885" data-name="Path 11885" d="M72,19H84a2,2,0,0,0,0-4H72a2,2,0,0,0,0,4Z" fill="#1d81b5"/>
    <path id="Path_11886" data-name="Path 11886" d="M10,103a2,2,0,0,0,2,2H56a2,2,0,0,0,2-2V83a2,2,0,0,0-2-2H12a2,2,0,0,0-2,2Zm4-18H54v16H14Z" fill="#1d81b5"/>
    <path id="Path_11887" data-name="Path 11887" d="M56,65H12a2,2,0,0,0,0,4H56a2,2,0,0,0,0-4Z" fill="#1d81b5"/>
    <path id="Path_11888" data-name="Path 11888" d="M12,77H56a2,2,0,0,0,0-4H12a2,2,0,0,0,0,4Z" fill="#1d81b5"/>
    <path id="Path_11889" data-name="Path 11889" d="M12,113H88.334a2,2,0,0,0,0-4H12a2,2,0,0,0,0,4Z" fill="#1d81b5"/>
    <path id="Path_11890" data-name="Path 11890" d="M88,35.916V33a2,2,0,0,0-2-2H12a2,2,0,0,0-2,2V59a2,2,0,0,0,2,2H62.285a9.856,9.856,0,0,1,2.859-1.36,9.758,9.758,0,0,1-.98-2.64H14V35H84v4.276A9.973,9.973,0,0,1,88,35.916Z" fill="#1d81b5"/>
    <path id="Path_11891" data-name="Path 11891" d="M94,109v6a2,2,0,0,1-2,2H6a2,2,0,0,1-2-2V27H94v8h3.847c.052,0,.1.006.153.007V13a6.007,6.007,0,0,0-6-6H6a6.007,6.007,0,0,0-6,6V115a6.007,6.007,0,0,0,6,6H92a6.007,6.007,0,0,0,6-6v-6.007c-.051,0-.1.007-.153.007ZM6,11H92a2,2,0,0,1,2,2V23H4V13A2,2,0,0,1,6,11Z" fill="#1d81b5"/>
    <path id="Path_11892" data-name="Path 11892" d="M122.1,63.25h-1.745a26.327,26.327,0,0,0-1.24-2.986l1.236-1.238a5.893,5.893,0,0,0-.009-8.35l-4.023-4.025a5.908,5.908,0,0,0-8.351,0l-1.233,1.232a26.572,26.572,0,0,0-2.981-1.237V44.9A5.91,5.91,0,0,0,97.847,39h-5.7a5.909,5.909,0,0,0-5.9,5.9v1.744a26.679,26.679,0,0,0-2.982,1.238l-1.238-1.236a5.9,5.9,0,0,0-8.333-.007l-4.043,4.041a5.9,5.9,0,0,0,0,8.35l1.231,1.233a26.415,26.415,0,0,0-1.237,2.985H67.9a5.906,5.906,0,0,0-5.9,5.9v5.7a5.907,5.907,0,0,0,5.9,5.9h1.744a26.405,26.405,0,0,0,1.237,2.985l-1.237,1.239a5.9,5.9,0,0,0,0,8.342l4.038,4.035a5.9,5.9,0,0,0,8.347-.006l1.231-1.231a26.576,26.576,0,0,0,2.982,1.237V99.1a5.906,5.906,0,0,0,5.9,5.9h5.7a5.908,5.908,0,0,0,5.906-5.9V97.355a26.642,26.642,0,0,0,2.981-1.237l1.235,1.234a5.906,5.906,0,0,0,8.346,0l4.034-4.034a5.895,5.895,0,0,0-.01-8.356l-1.225-1.226a26.489,26.489,0,0,0,1.24-2.986H122.1a5.908,5.908,0,0,0,5.9-5.9v-5.7a5.907,5.907,0,0,0-5.9-5.9Zm1.9,11.6a1.9,1.9,0,0,1-1.9,1.9h-4.782a22.586,22.586,0,0,1-3.177,7.666L117.52,87.8a1.895,1.895,0,0,1,0,2.689l-4.031,4.031a1.925,1.925,0,0,1-2.693,0l-3.381-3.379a22.818,22.818,0,0,1-7.663,3.18V99.1a1.9,1.9,0,0,1-1.906,1.9h-5.7a1.9,1.9,0,0,1-1.9-1.9V94.324a22.837,22.837,0,0,1-7.664-3.18L79.2,94.523a1.919,1.919,0,0,1-2.687,0l-4.035-4.031a1.9,1.9,0,0,1,0-2.69l3.379-3.385a22.688,22.688,0,0,1-3.175-7.666H67.9a1.9,1.9,0,0,1-1.9-1.9v-5.7a1.9,1.9,0,0,1,1.9-1.9h4.779a22.675,22.675,0,0,1,3.175-7.665L72.474,56.2a1.9,1.9,0,0,1,0-2.689l4.035-4.033a1.92,1.92,0,0,1,2.687,0l3.383,3.379a22.8,22.8,0,0,1,7.664-3.179V44.9a1.9,1.9,0,0,1,1.9-1.9h5.7a1.906,1.906,0,0,1,1.906,1.9v4.776a22.777,22.777,0,0,1,7.663,3.179l3.381-3.379a1.926,1.926,0,0,1,2.693,0l4.031,4.033a1.894,1.894,0,0,1,0,2.688l-3.381,3.386a22.54,22.54,0,0,1,3.177,7.665H122.1a1.9,1.9,0,0,1,1.9,1.9Z" fill="#1d81b5"/>
    <path id="Path_11893" data-name="Path 11893" d="M95,57a15,15,0,1,0,15,15A15,15,0,0,0,95,57Zm0,26a11,11,0,1,1,11-11A11,11,0,0,1,95,83Z" fill="#1d81b5"/>
  </g>
</svg>
