<svg xmlns="http://www.w3.org/2000/svg" width="124" height="126.288" viewBox="0 0 124 126.288">
  <path id="noun-scale-192232" d="M69.554,81.593,46.8,137.6a23.33,23.33,0,0,0,45.507,0Zm0,6.6,19.118,46.853H50.57Zm78.628-35.544L125.293,108.52a23.33,23.33,0,0,0,45.507,0Zm0,6.6L167.165,106.1h-38.1ZM112.5,153.085V66.918a7.114,7.114,0,0,0,3.9-6.328c0-.539-.135-1.077-.135-1.615L159.76,43.087l-.808-2.289L115.2,56.82a6.891,6.891,0,0,0-5.924-3.231,7.183,7.183,0,0,0-7.136,7.136v.942L58.648,77.554l.808,2.289,43.353-15.887a6.609,6.609,0,0,0,3.1,2.962V152.95a39.122,39.122,0,0,0-26.927,14.137h60.182a38.112,38.112,0,0,0-26.658-14Zm-7.27-90.072a4.648,4.648,0,0,1-.673-2.424,4.585,4.585,0,0,1,8.078-2.962,5.126,5.126,0,0,1,1.077,2.289c0,.269.135.4.135.673a4.54,4.54,0,0,1-4.578,4.578,4.455,4.455,0,0,1-4.039-2.154Z" transform="translate(-46.8 -40.798)" fill="#1d81b5"/>
</svg>
