<svg xmlns="http://www.w3.org/2000/svg" width="133.613" height="133.613" viewBox="0 0 133.613 133.613">
  <g id="noun-training-1422944" transform="translate(-2 -2)">
    <g id="Layer_3" data-name="Layer 3" transform="translate(2 2)">
      <path id="Path_11894" data-name="Path 11894" d="M20.034,13a13.361,13.361,0,0,0-9.553,4.031,12.2,12.2,0,0,0-3.474,9.086l.245,5.99a12.8,12.8,0,0,0,13.116,12.07h0a12.8,12.8,0,0,0,13.005-12.07l.356-5.99a12.2,12.2,0,0,0-3.452-9.086A13.361,13.361,0,0,0,20.7,13Zm.334,26.723h0a8.351,8.351,0,0,1-8.551-7.794V30.1a20.176,20.176,0,0,0,11.647-4.454,10,10,0,0,0,5.812,4.075v2.116a8.351,8.351,0,0,1-8.908,7.883Zm8.908-14.608A5.389,5.389,0,0,1,26.247,21.4a2.227,2.227,0,0,0-4.12-.824s-2.806,4.454-10.6,5.077a7.839,7.839,0,0,1,2.227-5.523,8.908,8.908,0,0,1,6.28-2.672H20.7a8.908,8.908,0,0,1,6.347,2.672A7.905,7.905,0,0,1,29.276,25.114Z" transform="translate(4.128 11.496)" fill="#1d81b5"/>
      <path id="Path_11895" data-name="Path 11895" d="M59.034,37a13.361,13.361,0,0,0-9.553,4.031,12.2,12.2,0,0,0-3.474,9.086l.245,5.99a12.8,12.8,0,0,0,13.116,12.07h0a12.8,12.8,0,0,0,13.005-12.07l.356-5.99a12.2,12.2,0,0,0-3.452-9.086A13.361,13.361,0,0,0,59.7,37Zm9.242,12.916-.267,6.013a8.351,8.351,0,0,1-8.64,7.794h0a8.351,8.351,0,0,1-8.551-7.794l-.356-6.013a7.883,7.883,0,0,1,2.227-5.79,8.907,8.907,0,0,1,6.347-2.672H59.7a8.908,8.908,0,0,1,6.347,2.672,7.883,7.883,0,0,1,2.227,5.79Z" transform="translate(51.976 40.941)" fill="#1d81b5"/>
      <path id="Path_11896" data-name="Path 11896" d="M8.681,92.083a6.68,6.68,0,0,0,2.227-.379v2.605a2.227,2.227,0,0,0,2.227,2.227H39.857a2.227,2.227,0,0,0,2.227-2.227v-36.1a2.227,2.227,0,0,1,.6-1.537L71.034,26.3a6.236,6.236,0,0,0-8.908-8.729L37.363,42.445a2.227,2.227,0,0,1-1.581.646H13.134A11.134,11.134,0,0,0,2,54.226V85.4a6.681,6.681,0,0,0,6.681,6.681ZM6.454,54.226a6.681,6.681,0,0,1,6.681-6.681H35.782a6.681,6.681,0,0,0,4.721-1.96L65.377,20.822a1.715,1.715,0,1,1,2.361,2.472L39.412,53.647A6.681,6.681,0,0,0,37.63,58.1V92.083H15.361v-33.4a2.227,2.227,0,1,0-4.454,0V85.4a2.227,2.227,0,1,1-4.454,0Z" transform="translate(-2 14.808)" fill="#1d81b5"/>
      <path id="Path_11897" data-name="Path 11897" d="M14.227,62.176a2.227,2.227,0,0,0,2.227-2.227V33.227a2.227,2.227,0,1,0-4.454,0V59.95A2.227,2.227,0,0,0,14.227,62.176Z" transform="translate(10.269 33.58)" fill="#1d81b5"/>
      <path id="Path_11898" data-name="Path 11898" d="M37.368,68.176h0a12.8,12.8,0,0,0,13.005-12.07l.356-5.99a12.2,12.2,0,0,0-3.452-9.086A13.361,13.361,0,0,0,37.7,37h-.668a13.361,13.361,0,0,0-9.553,4.031,12.2,12.2,0,0,0-3.474,9.086l.245,5.99a12.8,12.8,0,0,0,13.116,12.07Zm-6.681-24.05a8.908,8.908,0,0,1,6.347-2.672H37.7a8.907,8.907,0,0,1,6.347,2.672,7.883,7.883,0,0,1,2.227,5.79l-.267,6.013a8.351,8.351,0,0,1-8.64,7.794h0a8.351,8.351,0,0,1-8.551-7.794l-.356-6.013a7.883,7.883,0,0,1,2.227-5.79Z" transform="translate(24.985 40.941)" fill="#1d81b5"/>
      <path id="Path_11899" data-name="Path 11899" d="M53.782,52H30.756A10.778,10.778,0,0,0,20,62.756v9.286a2.227,2.227,0,1,0,4.454,0V62.756a6.3,6.3,0,0,1,6.3-6.3H53.782a6.3,6.3,0,0,1,6.3,6.3v9.286a2.227,2.227,0,1,0,4.454,0V62.756A10.778,10.778,0,0,0,53.782,52Z" transform="translate(20.084 59.344)" fill="#1d81b5"/>
      <path id="Path_11900" data-name="Path 11900" d="M86.538,62.756A10.778,10.778,0,0,0,75.782,52H52.756A10.778,10.778,0,0,0,42,62.756v9.286a2.227,2.227,0,1,0,4.454,0V62.756a6.3,6.3,0,0,1,6.3-6.3H75.782a6.3,6.3,0,0,1,6.3,6.3v9.286a2.227,2.227,0,1,0,4.454,0Z" transform="translate(47.076 59.344)" fill="#1d81b5"/>
      <path id="Path_11901" data-name="Path 11901" d="M112.3,68.807V8.681A6.681,6.681,0,0,0,105.622,2H27.681A6.681,6.681,0,0,0,21,8.681v33.4a2.227,2.227,0,0,0,4.454,0V15.361h82.395V68.807a2.227,2.227,0,0,1-2.227,2.227H29.729a2.227,2.227,0,0,0,0,4.454h76a6.681,6.681,0,0,0,6.569-6.681Zm-86.849-57.9V8.681a2.227,2.227,0,0,1,2.227-2.227h78.164a2.227,2.227,0,0,1,2.227,2.227v2.227Z" transform="translate(21.311 -2)" fill="#1d81b5"/>
      <path id="Path_11902" data-name="Path 11902" d="M58.227,14.75A2.227,2.227,0,0,0,56,16.977V48.71a2.227,2.227,0,1,0,4.454,0V16.977A2.227,2.227,0,0,0,58.227,14.75Z" transform="translate(64.252 13.643)" fill="#1d81b5"/>
      <path id="Path_11903" data-name="Path 11903" d="M54.227,21A2.227,2.227,0,0,0,52,23.227V41.042a2.227,2.227,0,0,0,4.454,0V23.227A2.227,2.227,0,0,0,54.227,21Z" transform="translate(59.344 21.311)" fill="#1d81b5"/>
      <path id="Path_11904" data-name="Path 11904" d="M48,21.227V43.5a2.227,2.227,0,0,0,4.454,0V21.227a2.227,2.227,0,1,0-4.454,0Z" transform="translate(54.437 18.857)" fill="#1d81b5"/>
      <path id="Path_11905" data-name="Path 11905" d="M46.227,25A2.227,2.227,0,0,0,44,27.227v8.908a2.227,2.227,0,1,0,4.454,0V27.227A2.227,2.227,0,0,0,46.227,25Z" transform="translate(49.529 26.218)" fill="#1d81b5"/>
      <path id="Path_11906" data-name="Path 11906" d="M40.445,44.645a2.227,2.227,0,0,0,3.118.445l8.908-6.681a2,2,0,0,0,.646-.779L60.844,22.2l6.681,5.077a2.36,2.36,0,0,0,1.715.423,2.227,2.227,0,0,0,1.47-.98l8.908-13.361a2.227,2.227,0,0,0-3.7-2.45L68.3,22.309l-6.926-5.278a2.231,2.231,0,0,0-3.318.779L49.375,35.158l-8.484,6.369A2.227,2.227,0,0,0,40.445,44.645Z" transform="translate(44.622 7.91)" fill="#1d81b5"/>
      <path id="Path_11907" data-name="Path 11907" d="M53.95,10H27.227a2.227,2.227,0,1,0,0,4.454H53.95a2.227,2.227,0,0,0,0-4.454Z" transform="translate(26.218 7.815)" fill="#1d81b5"/>
      <path id="Path_11908" data-name="Path 11908" d="M47.681,14.454a2.227,2.227,0,1,0,0-4.454H43.227a2.227,2.227,0,1,0,0,4.454Z" transform="translate(45.849 7.815)" fill="#1d81b5"/>
    </g>
  </g>
</svg>
